<?xml version="1.0" standalone="no"?>
<!DOCTYPE svg PUBLIC "-//W3C//DTD SVG 20010904//EN"
 "http://www.w3.org/TR/2001/REC-SVG-20010904/DTD/svg10.dtd">
<svg version="1.0" xmlns="http://www.w3.org/2000/svg"
 width="517.000000pt" height="221.000000pt" viewBox="0 0 517.000000 221.000000"
 preserveAspectRatio="xMidYMid meet">

<g transform="translate(0.000000,221.000000) scale(0.100000,-0.100000)"
fill="#000000" stroke="none">
<path d="M863 1584 c-181 -65 -233 -315 -93 -454 99 -100 275 -108 382 -20 47
39 88 122 95 194 l6 56 -157 0 -156 0 0 -45 0 -45 85 0 c99 0 107 -10 52 -65
-45 -45 -107 -55 -171 -27 -134 60 -119 260 22 303 53 15 108 1 156 -41 29
-26 42 -30 90 -30 48 0 56 3 56 18 0 25 -50 94 -87 120 -70 50 -195 66 -280
36z"/>
<path d="M1650 1585 c-194 -62 -245 -335 -89 -468 108 -93 298 -86 398 14 52
51 75 112 75 194 0 116 -55 204 -154 248 -58 26 -169 32 -230 12z m191 -128
c91 -61 91 -203 0 -264 -72 -48 -190 -22 -228 50 -21 40 -22 112 -4 155 33 78
157 110 232 59z"/>
<path d="M2290 1325 l0 -265 133 0 c150 0 186 8 253 53 71 47 99 108 99 212 0
104 -28 165 -99 212 -67 45 -103 53 -253 53 l-133 0 0 -265z m275 136 c52 -24
72 -47 83 -96 25 -118 -48 -195 -184 -195 l-54 0 0 155 0 155 58 0 c34 0 73
-8 97 -19z"/>
<path d="M2800 1450 l0 -80 720 0 720 0 0 80 0 80 -720 0 -720 0 0 -80z"/>
<path d="M2963 943 c-4 -10 -62 -157 -129 -326 l-122 -308 81 3 81 3 21 53 20
52 130 0 131 0 19 -55 18 -55 80 0 c71 0 79 2 75 18 -3 9 -60 155 -127 325
l-122 307 -75 0 c-62 0 -76 -3 -81 -17z m130 -295 c21 -54 37 -100 37 -103 0
-3 -38 -5 -85 -5 -47 0 -85 3 -85 8 0 4 15 45 33 92 18 47 37 94 40 104 11 27
19 14 60 -96z"/>
<path d="M3650 635 l0 -325 75 0 75 0 2 191 3 191 75 -111 75 -110 55 0 55 0
75 111 75 112 3 -192 2 -192 75 0 75 0 0 325 0 326 -67 -3 -68 -3 -110 -162
c-60 -89 -112 -162 -115 -162 -3 0 -55 73 -116 162 l-110 162 -67 3 -67 3 0
-326z"/>
<path d="M1170 535 l0 -95 725 0 725 0 0 95 0 95 -725 0 -725 0 0 -95z"/>
</g>
</svg>
